<svg xmlns="http://www.w3.org/2000/svg" viewBox="0 0 24 24">
  <circle cx="12" cy="11.999" r="10.75" fill="#fff"/>
  <path d="M22.5 8.712c-.06-.19-.135-.372-.205-.558a11.004 11.004 0 0 0-3.082-4.447q-.219-.19-.446-.369A10.941 10.941 0 0 0 12 .998c-.281 0-.557.022-.833.043-.2.015-.4.035-.597.06A10.912 10.912 0 0 0 6.505 2.48c-.178.103-.355.208-.527.32A11.02 11.02 0 0 0 1.68 8.22c-.061.165-.13.327-.182.497a10.712 10.712 0 0 0-.35 5.016c.028.173.048.348.083.518a10.99 10.99 0 0 0 4.17 6.535c.135.102.266.208.406.304a10.933 10.933 0 0 0 4.77 1.807c.177.023.354.043.533.058.294.023.589.045.889.045a10.938 10.938 0 0 0 5.424-1.438q.269-.153.527-.32a11.031 11.031 0 0 0 3.954-4.482c.075-.156.158-.308.226-.469a11.036 11.036 0 0 0 .369-7.578zM8.94 4.657l.703 3.314-2.487 3.123-2.995-.111-.375-2.41 3.011-3.831zm.482-.138l2.384-1.287 4.349 1.689.63 2.722-2.938 1.53-3.712-1.292zm-5.296 6.963l2.962.11 2.008 3.31-.908 3.045-2.338-.109-2.356-3.545zm5.426 3.64l4.02-.911 2.66 1.9-.854 2.869-4.168 1.181L8.665 18.1zm4.379-1.27l.247-4.288 2.902-1.51L19.58 9.92l-.373 4.333-2.647 1.476zM12 2.5a9.457 9.457 0 0 1 6.044 2.176l-1.22-.03-5.203-2.02-.107-.102c.162-.008.322-.024.486-.024zM6.468 4.29l-.002.063-3.222 4.101-.06.02a9.54 9.54 0 0 1 3.284-4.184zM2.823 14.416l.238.128 2.627 3.953.227.788a9.511 9.511 0 0 1-3.092-4.869zM12 21.5a9.507 9.507 0 0 1-1.253-.093l.478-.729 4.526-1.282 1.624.428A9.442 9.442 0 0 1 12 21.5zm6.556-2.643l1.655-2.388.154.027a9.55 9.55 0 0 1-1.809 2.361zm1.645-2.897l-.525-1.314.428-4.966.764-1.059a9.366 9.366 0 0 1-.277 7.406z"/>
  <path fill="none" d="M.001 0h24v24h-24z"/>
</svg>
