<svg xmlns="http://www.w3.org/2000/svg" viewBox="0 0 24 24">
  <path fill="#b8dcf3" d="M0 0h24v24H0z"/>
  <path fill="#292c2e" d="M19.6 12.597c-.6-.6-.9-2.4-1.4-2.9-.1-.1-.9-.1-1.1-.2a4.819 4.819 0 0 1-1.2 0c-.4-.2-.6-.7-1.2-.6a4.248 4.248 0 0 0-1.7.5c-.5.5-1.6 2.3-1.3 3.1.1.3.3.6.4.9.2.3 1.2 1 1.6.8.3-.1.8-.4 1.1-.2.2.1.2.3.4.5.3.3.1 1 .3 1.4 0 .1.2.4.1.5-.1.3-.4.6-.3 1 .1.5.5.8.6 1.3 0 .3.2 1.3.4 1.4 1.2.6 2.2-1 2.8-1.6.2-.2-.1-.9 0-1.2a4.696 4.696 0 0 0 .6-.9 2.092 2.092 0 0 0-.4-.6c-.2-.3.9-1.3 1-1.3.3 0 .7-1.5.6-1.6-.3-.4-1 0-1.3-.3zM20.2 18.797a3.1 3.1 0 0 0 .2-.7c.2-.4.5-1.1.1-1.4-.7.2-.8 1.6-.3 2.1zM13.4 6.197s1-.3.8-.6a2.622 2.622 0 0 1-.5-.9c-.6-.2-.1.6-.1.9-.1.1-.3.5-.2.6z"/>
  <path fill="#292c2e" d="M23.3 1.797a12.75 12.75 0 0 1-1.2.7c-.9.3-1.6.1-2.3.7 0-.2-.3.2-.3.1-.1-.3-.9-.4-1.2-.5-.9-.2-1.5-.6-2.4-.1-.2.1-.4.9-.5 1.1-.3.4-.9.4-.6 1.1v.3c.2.1.6-.2.6-.2.2.2-.2.3.3.3h.5c.1-.1.1-.4.1-.5s.3-.2.2-.3a1.072 1.072 0 0 1-.2-.6c0-.1.5-.6.7-.4s-.4.5-.3.8.7.1.6.5c-.2.8-1.7.8-2.2 1h-.5c-.1.1 0 .4-.1.5a6.214 6.214 0 0 1-1 .3c-.1.2.1.8 0 .9-.4.4-.7-.4-.9.5s.8.9 1.3.5c.3-.3-.2-.8.6-1 .4-.1.7.3 1 .4.4.1.5-.2.8-.1s.9.8 1.4 1c.2.1.2.2.3.2s.2.1.3 0c.2 0 .5 0 .6.1.2.2-.2 1 0 1.2.7.8.4 2.4 1.9 2.1.6-.1.8-.4 1.2-.8.3-.3.1-1.3.9-1a1.411 1.411 0 0 1 1.1 1v-9.8a.846.846 0 0 0-.7 0zM9 15.097a10.82 10.82 0 0 0-2.2-2.1c-.3-.2-.8-.1-1.1-.2-.2 0-.7 0-.8.2-.1.1 0 .7-.1.8a1.99 1.99 0 0 0-.8 1.2 7.274 7.274 0 0 0 .6 2.1c.2.2.5.2.6.4a3.261 3.261 0 0 1 0 1.7c-.1.4.1 1-.1 1.3-.5 1.1-.5 3 .5 3.5.3.1.1-1.1.1-1.2a2.413 2.413 0 0 1 .7-1.7c.5-.4 1.4-.6 1.6-1.1a12.62 12.62 0 0 1 .7-1.6c.3-.3.7-.3.9-.6.2-.2-.1-.7.1-.9s.9-.8.6-1.3-.9-.1-1.3-.5zM5.8.997c.2.3.8-.1 1 .1.4.4.4 1.2.7 1.5.1.1.5-.1.6.2.3.6-.5 1 .6 2.1.2.1.5-.4.5-.5a1.765 1.765 0 0 1 .8-.9c.5-.3 1.6-.6 1.9-1 .4-.4.1-1.5.3-2a2.181 2.181 0 0 0 .4-.5H6.5c-.4.4-.8.7-.7 1zM1 11.897s2 .8 2.2.9c.1 0 1.1 1 1.4.6.2-.2-.7-.4-.9-.5-.2-.2.2-.4.1-.6-.2-.2-.5.2-.6-.2-.2-.3.2-.9-.2-1-.6 0-.6.9-1 .6-.3-.1-.3-.7-.3-.9 0-.7.4-.5 1-.7a2.186 2.186 0 0 0 .5-.3c.5.2.4.4.7.7 0 0 .1.2.2.1.2-.2-.3-1 0-1.3.1-.1.4 0 .5-.1a4.608 4.608 0 0 0 .9-1.7c.3-.5 1 .1 1.2-.3.1-.2-.9-.4-.6-.7 0-.1.9-.2.9-.1.2.4-.1.7.7.7.1 0 .1 0 .2-.1.1-.2-.3-.4-.4-.5s.1-.5-.1-.7c-.3-.3-.9-.5-1.1-.8a2.484 2.484 0 0 1-.1-1.9s.1-.2 0-.2c-.5-.6-1.5-1-1.9-1.7v-.2c0-.2.5-.1.6-.3s.3-.5.4-.7H1.8c.2.4.4.8.2 1a2.3 2.3 0 0 1-2 .1v9.1c.1.1.1.1.1.2.5.3.5 1.1.9 1.5zm.8-7.3c.2-.2.7 0 .8-.2.2-.2.4-.6.6-.6a7.551 7.551 0 0 0 1.4 1.1c.1 0 0-.1.1.1s-.3.7-.4.9c0 .1.1.8-.1.7-.4-.2-.4-.9-.7-1.2s-1.7-.5-1.7-.8z"/>
</svg>
