<svg xmlns="http://www.w3.org/2000/svg" viewBox="0 0 24 24">
  <circle cx="12.001" cy="11.997" r="10.75" fill="#f2d146"/>
  <path fill="none" d="M.003.002h23.996v23.996H.003z"/>
  <path d="M19.783 4.222a11 11 0 0 0-18.73 6.728c-.03.321-.043.643-.045.966a10.999 10.999 0 1 0 18.775-7.694zm-1.061 14.496a9.489 9.489 0 0 1-16.205-6.532 10.617 10.617 0 0 1 4.36 2.438c2.353 2.105 4.438 2.789 6.155 2.789a6.912 6.912 0 0 0 4.486-1.742 7.311 7.311 0 0 0 2.528-4.903 6.694 6.694 0 0 0-2.972-6.172 10.07 10.07 0 0 1 1.308 2.153 6.824 6.824 0 0 1-1.52 8.167c-1.245 1.081-4.647 3.144-9.317-1.037a11.427 11.427 0 0 0-4.999-2.68 9.496 9.496 0 1 1 16.176 7.52z"/>
</svg>
